<mxfile host="app.diagrams.net" modified="2023-04-24T13:15:30.290Z" agent="Mozilla/5.0 (Windows NT 10.0; Win64; x64) AppleWebKit/537.36 (KHTML, like Gecko) Chrome/112.0.0.0 Safari/537.36" etag="DJeepwqoUysqGASHMBSH" version="21.2.1" type="github">
  <diagram name="Page-1" id="llERlAlbEuUNeJ7v1eqU">
    <mxGraphModel dx="2261" dy="764" grid="1" gridSize="10" guides="1" tooltips="1" connect="1" arrows="1" fold="1" page="1" pageScale="1" pageWidth="827" pageHeight="1169" math="0" shadow="0">
      <root>
        <mxCell id="0" />
        <mxCell id="1" parent="0" />
        <mxCell id="-JLMsc8RkDursWPMarls-5" value="" style="group" vertex="1" connectable="0" parent="1">
          <mxGeometry x="130" y="120" width="140" height="220" as="geometry" />
        </mxCell>
        <mxCell id="-JLMsc8RkDursWPMarls-3" value="" style="group" vertex="1" connectable="0" parent="-JLMsc8RkDursWPMarls-5">
          <mxGeometry width="140" height="120" as="geometry" />
        </mxCell>
        <mxCell id="-JLMsc8RkDursWPMarls-1" value="unité" style="rounded=0;whiteSpace=wrap;html=1;" vertex="1" parent="-JLMsc8RkDursWPMarls-3">
          <mxGeometry width="140" height="60" as="geometry" />
        </mxCell>
        <mxCell id="-JLMsc8RkDursWPMarls-2" value="metier : string&lt;br&gt;cheval : bool&lt;br&gt;inventaire : List&amp;lt;Objet&amp;gt;" style="rounded=0;whiteSpace=wrap;html=1;" vertex="1" parent="-JLMsc8RkDursWPMarls-3">
          <mxGeometry y="60" width="140" height="60" as="geometry" />
        </mxCell>
        <mxCell id="-JLMsc8RkDursWPMarls-4" value="seDeplacer();&lt;br&gt;" style="rounded=0;whiteSpace=wrap;html=1;" vertex="1" parent="-JLMsc8RkDursWPMarls-5">
          <mxGeometry y="120" width="140" height="100" as="geometry" />
        </mxCell>
        <mxCell id="-JLMsc8RkDursWPMarls-7" value="bucheron" style="rounded=0;whiteSpace=wrap;html=1;" vertex="1" parent="1">
          <mxGeometry x="-10" y="390" width="120" height="60" as="geometry" />
        </mxCell>
        <mxCell id="-JLMsc8RkDursWPMarls-8" value="mineur" style="rounded=0;whiteSpace=wrap;html=1;" vertex="1" parent="1">
          <mxGeometry x="140" y="420" width="120" height="60" as="geometry" />
        </mxCell>
        <mxCell id="-JLMsc8RkDursWPMarls-9" value="paysan" style="rounded=0;whiteSpace=wrap;html=1;" vertex="1" parent="1">
          <mxGeometry x="294" y="390" width="120" height="60" as="geometry" />
        </mxCell>
        <mxCell id="-JLMsc8RkDursWPMarls-10" style="edgeStyle=orthogonalEdgeStyle;rounded=0;orthogonalLoop=1;jettySize=auto;html=1;exitX=0.25;exitY=1;exitDx=0;exitDy=0;entryX=0.75;entryY=0;entryDx=0;entryDy=0;" edge="1" parent="1" source="-JLMsc8RkDursWPMarls-4" target="-JLMsc8RkDursWPMarls-7">
          <mxGeometry relative="1" as="geometry" />
        </mxCell>
        <mxCell id="-JLMsc8RkDursWPMarls-11" style="edgeStyle=orthogonalEdgeStyle;rounded=0;orthogonalLoop=1;jettySize=auto;html=1;exitX=0.75;exitY=1;exitDx=0;exitDy=0;entryX=0.25;entryY=0;entryDx=0;entryDy=0;" edge="1" parent="1" source="-JLMsc8RkDursWPMarls-4" target="-JLMsc8RkDursWPMarls-9">
          <mxGeometry relative="1" as="geometry" />
        </mxCell>
        <mxCell id="-JLMsc8RkDursWPMarls-12" style="edgeStyle=orthogonalEdgeStyle;rounded=0;orthogonalLoop=1;jettySize=auto;html=1;exitX=0.5;exitY=1;exitDx=0;exitDy=0;entryX=0.5;entryY=0;entryDx=0;entryDy=0;" edge="1" parent="1" source="-JLMsc8RkDursWPMarls-4" target="-JLMsc8RkDursWPMarls-8">
          <mxGeometry relative="1" as="geometry" />
        </mxCell>
        <mxCell id="-JLMsc8RkDursWPMarls-17" value="" style="group" vertex="1" connectable="0" parent="1">
          <mxGeometry x="760" y="120" width="120" height="180" as="geometry" />
        </mxCell>
        <mxCell id="-JLMsc8RkDursWPMarls-15" value="" style="group" vertex="1" connectable="0" parent="-JLMsc8RkDursWPMarls-17">
          <mxGeometry width="120" height="120" as="geometry" />
        </mxCell>
        <mxCell id="-JLMsc8RkDursWPMarls-13" value="Carte" style="rounded=0;whiteSpace=wrap;html=1;" vertex="1" parent="-JLMsc8RkDursWPMarls-15">
          <mxGeometry width="120" height="60" as="geometry" />
        </mxCell>
        <mxCell id="-JLMsc8RkDursWPMarls-14" value="colonne : int&lt;br&gt;ligne : int" style="rounded=0;whiteSpace=wrap;html=1;" vertex="1" parent="-JLMsc8RkDursWPMarls-15">
          <mxGeometry y="60" width="120" height="60" as="geometry" />
        </mxCell>
        <mxCell id="-JLMsc8RkDursWPMarls-16" value="genererCarte();&lt;br&gt;genererObjet();" style="rounded=0;whiteSpace=wrap;html=1;" vertex="1" parent="-JLMsc8RkDursWPMarls-17">
          <mxGeometry y="120" width="120" height="60" as="geometry" />
        </mxCell>
        <mxCell id="-JLMsc8RkDursWPMarls-20" value="" style="group" vertex="1" connectable="0" parent="1">
          <mxGeometry x="1130" y="120" width="120" height="120" as="geometry" />
        </mxCell>
        <mxCell id="-JLMsc8RkDursWPMarls-18" value="Objet" style="rounded=0;whiteSpace=wrap;html=1;" vertex="1" parent="-JLMsc8RkDursWPMarls-20">
          <mxGeometry width="120" height="60" as="geometry" />
        </mxCell>
        <mxCell id="-JLMsc8RkDursWPMarls-19" value="nom : string&lt;br&gt;quantité : int" style="rounded=0;whiteSpace=wrap;html=1;" vertex="1" parent="-JLMsc8RkDursWPMarls-20">
          <mxGeometry y="60" width="120" height="60" as="geometry" />
        </mxCell>
      </root>
    </mxGraphModel>
  </diagram>
</mxfile>
